<svg viewBox="0 0 318 45" xmlns="http://www.w3.org/2000/svg" data-logo="logo">
        <g transform="translate(0, 2) rotate(0)" id="logogram" style="opacity: 1;"><path fill="#00067F" d="M24.2071 0.429993L28.9214 4.35857L24.8473 7.75366C24.4764 8.0627 23.9378 8.0627 23.5669 7.75366L19.4928 4.35857L24.2071 0.429993Z"></path><path fill="#00067F" d="M23.5669 11.7844C23.9378 12.0935 24.4764 12.0935 24.8473 11.7844L31.3398 6.37397L35.0743 9.48605L26.7678 16.4081C25.2845 17.6443 23.1297 17.6443 21.6463 16.4081L13.3399 9.48605L17.0744 6.37397L23.5669 11.7844Z" clip-rule="evenodd" fill-rule="evenodd"></path><path fill="#00067F" d="M24.2071 40.43L19.4928 36.5014L23.5669 33.1063C23.9378 32.7973 24.4764 32.7973 24.8473 33.1063L28.9214 36.5014L24.2071 40.43Z"></path><path fill="#00067F" d="M24.8473 29.0755C24.4764 28.7665 23.9378 28.7665 23.5669 29.0755L17.0744 34.486L13.3399 31.3739L21.6463 24.4518C23.1297 23.2157 25.2845 23.2157 26.7678 24.4518L35.0743 31.3739L31.3398 34.486L24.8473 29.0755Z" clip-rule="evenodd" fill-rule="evenodd"></path><path fill="#00067F" d="M48.207 20.43L43.4928 16.5014L39.7004 19.6618C39.2206 20.0616 39.2206 20.7984 39.7004 21.1982L43.4928 24.3586L48.207 20.43Z"></path><path fill="#00067F" d="M34.8634 21.1982C34.3837 20.7984 34.3837 20.0616 34.8634 19.6618L41.0743 14.486L37.3398 11.3739L30.16 17.3571C28.241 18.9563 28.241 21.9037 30.16 23.5029L37.3398 29.4861L41.0743 26.374L34.8634 21.1982Z" clip-rule="evenodd" fill-rule="evenodd"></path><path fill="#00067F" d="M0.207031 20.4301L4.9213 24.3587L8.71371 21.1983C9.19346 20.7985 9.19346 20.0617 8.71371 19.6619L4.9213 16.5015L0.207031 20.4301Z"></path><path fill="#00067F" d="M13.5506 19.6619C14.0304 20.0617 14.0304 20.7985 13.5506 21.1983L7.33976 26.3741L11.0742 29.4862L18.254 23.503C20.173 21.9038 20.173 18.9564 18.254 17.3572L11.0742 11.374L7.33976 14.4861L13.5506 19.6619Z" clip-rule="evenodd" fill-rule="evenodd"></path></g>
        <g transform="translate(55, 1)" id="logotype" style="opacity: 1;"><path d="M28.19 35L12.72 35Q11.39 35 10.29 34.34Q9.19 33.67 8.52 32.57Q7.86 31.46 7.86 30.13L7.86 30.13L7.86 28.21L12.48 28.21L12.48 29.93Q12.48 30.10 12.60 30.22Q12.72 30.34 12.89 30.34L12.89 30.34L27.98 30.34Q28.16 30.34 28.28 30.22Q28.40 30.10 28.40 29.93L28.40 29.93L28.40 25.13Q28.40 24.95 28.28 24.85Q28.16 24.74 27.98 24.74L27.98 24.74L12.72 24.74Q11.39 24.74 10.29 24.08Q9.19 23.41 8.52 22.31Q7.86 21.21 7.86 19.84L7.86 19.84L7.86 14.66Q7.86 13.33 8.52 12.23Q9.19 11.13 10.29 10.46Q11.39 9.80 12.72 9.80L12.72 9.80L28.19 9.80Q29.52 9.80 30.62 10.46Q31.73 11.13 32.39 12.23Q33.06 13.33 33.06 14.66L33.06 14.66L33.06 16.59L28.40 16.59L28.40 14.87Q28.40 14.70 28.28 14.58Q28.16 14.45 27.98 14.45L27.98 14.45L12.89 14.45Q12.72 14.45 12.60 14.58Q12.48 14.70 12.48 14.87L12.48 14.87L12.48 19.67Q12.48 19.84 12.60 19.95Q12.72 20.05 12.89 20.05L12.89 20.05L28.19 20.05Q29.52 20.05 30.62 20.72Q31.73 21.38 32.39 22.49Q33.06 23.59 33.06 24.95L33.06 24.95L33.06 30.13Q33.06 31.46 32.39 32.57Q31.73 33.67 30.62 34.34Q29.52 35 28.19 35L28.19 35ZM41.32 35L36.73 35L36.73 35L36.73 14.70L41.32 14.70L41.32 35ZM41.32 12.67L36.73 12.67L36.73 12.67L36.73 8.05L41.32 8.05L41.32 12.67ZM49.16 35L44.57 35L44.57 35L44.57 14.70L69.74 14.70Q71.10 14.70 72.19 15.36Q73.27 16.03 73.92 17.11Q74.57 18.20 74.57 19.53L74.57 19.53L74.57 35L70.02 35L70.02 19.70Q70.02 19.53 69.88 19.41Q69.74 19.28 69.56 19.28L69.56 19.28L62.32 19.28Q62.14 19.28 62.02 19.41Q61.90 19.53 61.90 19.70L61.90 19.70L61.90 35L57.28 35L57.28 19.70Q57.28 19.53 57.15 19.41Q57.03 19.28 56.86 19.28L56.86 19.28L49.58 19.28Q49.40 19.28 49.28 19.41Q49.16 19.53 49.16 19.70L49.16 19.70L49.16 35ZM82.02 43.05L77.44 43.05L77.44 43.05L77.44 14.70L93.22 14.70Q94.55 14.70 95.65 15.36Q96.76 16.03 97.40 17.11Q98.05 18.20 98.05 19.53L98.05 19.53L98.05 30.17Q98.05 31.50 97.40 32.59Q96.76 33.67 95.65 34.34Q94.55 35 93.22 35L93.22 35L82.02 35L82.02 43.05ZM82.44 30.41L82.44 30.41L93.05 30.41Q93.22 30.41 93.34 30.29Q93.47 30.17 93.47 29.99L93.47 29.99L93.47 19.70Q93.47 19.53 93.34 19.41Q93.22 19.28 93.05 19.28L93.05 19.28L82.44 19.28Q82.27 19.28 82.14 19.41Q82.02 19.53 82.02 19.70L82.02 19.70L82.02 29.99Q82.02 30.17 82.14 30.29Q82.27 30.41 82.44 30.41ZM105.44 35L105.44 35Q104.11 35 103.02 34.34Q101.94 33.67 101.27 32.59Q100.61 31.50 100.61 30.17L100.61 30.17L100.61 8.01L105.23 8.01L105.23 29.99Q105.23 30.17 105.35 30.29Q105.47 30.41 105.65 30.41L105.65 30.41L109.53 30.41L109.53 35L105.44 35ZM127.98 42.52L115.55 42.52L115.55 42.52L115.55 37.91L127.77 37.91Q127.94 37.91 128.06 37.78Q128.19 37.66 128.19 37.48L128.19 37.48L128.19 35L116.99 35Q115.69 35 114.59 34.34Q113.49 33.67 112.82 32.59Q112.16 31.50 112.16 30.17L112.16 30.17L112.16 14.77L116.74 14.77L116.74 29.99Q116.74 30.17 116.86 30.29Q116.99 30.41 117.16 30.41L117.16 30.41L127.77 30.41Q127.94 30.41 128.06 30.29Q128.19 30.17 128.19 29.99L128.19 29.99L128.19 14.77L132.77 14.77L132.77 37.70Q132.77 39.02 132.14 40.13Q131.51 41.23 130.41 41.88Q129.31 42.52 127.98 42.52L127.98 42.52ZM172.57 35L147.37 35L147.37 9.76L151.99 9.76L151.99 30.34L172.57 30.34L172.57 35ZM179.25 35L179.25 35Q177.92 35 176.84 34.34Q175.75 33.67 175.09 32.59Q174.42 31.50 174.42 30.17L174.42 30.17L174.42 19.53Q174.42 18.20 175.09 17.11Q175.75 16.03 176.84 15.36Q177.92 14.70 179.25 14.70L179.25 14.70L190.21 14.70Q191.54 14.70 192.64 15.36Q193.74 16.03 194.39 17.11Q195.04 18.20 195.04 19.53L195.04 19.53L195.04 27.16L179.01 27.16L179.01 29.99Q179.01 30.17 179.13 30.29Q179.25 30.41 179.43 30.41L179.43 30.41L195.04 30.41L195.04 35L179.25 35ZM179.01 19.70L179.01 23.03L190.45 23.03L190.45 19.70Q190.45 19.53 190.33 19.41Q190.21 19.28 190.03 19.28L190.03 19.28L179.43 19.28Q179.25 19.28 179.13 19.41Q179.01 19.53 179.01 19.70L179.01 19.70ZM219.29 35L203.51 35Q202.18 35 201.07 34.34Q199.97 33.67 199.32 32.59Q198.68 31.50 198.68 30.17L198.68 30.17L198.68 22.54L214.71 22.54L214.71 19.70Q214.71 19.53 214.58 19.41Q214.46 19.28 214.29 19.28L214.29 19.28L198.68 19.28L198.68 14.70L214.46 14.70Q215.79 14.70 216.89 15.36Q218.00 16.03 218.64 17.11Q219.29 18.20 219.29 19.53L219.29 19.53L219.29 35ZM203.68 30.41L203.68 30.41L214.71 30.41L214.71 26.67L203.26 26.67L203.26 29.99Q203.26 30.17 203.38 30.29Q203.51 30.41 203.68 30.41ZM226.85 35L222.27 35L222.27 35L222.27 19.53Q222.27 18.20 222.93 17.11Q223.60 16.03 224.70 15.36Q225.80 14.70 227.10 14.70L227.10 14.70L238.37 14.70L238.37 19.28L227.27 19.28Q227.10 19.28 226.97 19.41Q226.85 19.53 226.85 19.70L226.85 19.70L226.85 35ZM245.68 35L241.10 35L241.10 35L241.10 14.70L256.88 14.70Q258.21 14.70 259.31 15.36Q260.42 16.03 261.06 17.11Q261.71 18.20 261.71 19.53L261.71 19.53L261.71 35L257.13 35L257.13 19.70Q257.13 19.53 257.00 19.41Q256.88 19.28 256.71 19.28L256.71 19.28L246.10 19.28Q245.93 19.28 245.80 19.41Q245.68 19.53 245.68 19.70L245.68 19.70L245.68 35Z" fill="#00000"></path></g>
        
      </svg>
